<svg xmlns="http://www.w3.org/2000/svg" width="228" height="36" fill="none" viewBox="0 0 228 36"><style>.b{fill:hsl(201,100%,24%);fill:oklch(0.3971 0.1093 234.33)}.g{fill:hsl(81,100%,37%);fill:oklch(0.7169 0.2209 128.71)}</style><path class="b" d="M207 3.907 210.791 0l6.709 6.67L224.209 0 228 3.907l-6.634 6.593L228 17.093 224.209 21l-6.709-6.67-6.709 6.67L207 17.093l6.634-6.593zM0 34.43V.61h8.602v33.82zM28.29 35.04c-10.148 0-16.453-6.493-16.453-17.532v-.024C11.837 6.445 18.188 0 28.29 0c8.836 0 14.953 5.672 15.258 13.242v.235h-8.274l-.047-.352c-.539-3.516-3-6-6.937-6-4.71 0-7.687 3.867-7.687 10.336v.023c0 6.54 3 10.43 7.71 10.43 3.727 0 6.375-2.32 6.961-6.094l.047-.258h8.274l-.024.258c-.304 7.57-6.492 13.22-15.281 13.22M43.033 34.43 54.423.61h10.524l11.39 33.82h-9.023L65.205 27h-11.04l-2.108 7.43zm16.57-26.461-3.656 12.843h7.477L59.767 7.97z"/><path class="g" d="M78.636 34.43V.61h7.289l13.523 19.523h.164V.609h8.578v33.82h-7.218L87.378 14.696h-.164V34.43zM124.082 34.969c-8.086 0-13.055-4.875-13.055-13.29v-.046c0-8.274 5.133-13.266 13.055-13.266 7.945 0 13.055 4.945 13.055 13.266v.047c0 8.437-5.016 13.289-13.055 13.289m.023-6.305c2.836 0 4.618-2.508 4.618-6.984v-.047c0-4.406-1.829-6.961-4.641-6.961s-4.617 2.555-4.617 6.96v.048c0 4.5 1.758 6.984 4.64 6.984M150.473 34.969c-6.187 0-9-2.227-9-7.992V15h-3.468V8.906h3.468V3.023h8.321v5.883h4.57V15h-4.57v10.852c0 2.203.984 3.023 3.023 3.023.656 0 1.078-.047 1.547-.117v5.906c-.914.164-2.156.305-3.891.305M168.849 34.969c-8.062 0-12.961-5.04-12.961-13.29v-.023c0-8.203 4.922-13.289 12.68-13.289 7.711 0 12.61 5.04 12.61 12.774v2.437h-17.157c.094 3.445 1.969 5.485 4.992 5.485 2.672 0 4.125-1.524 4.5-2.578l.024-.118h7.5l-.07.281c-.774 3.54-3.985 8.32-12.118 8.32m-.093-20.696c-2.438 0-4.196 1.594-4.618 4.407h9.211c-.421-2.86-2.156-4.407-4.593-4.407M194.678 34.969c-7.593 0-11.671-3.352-12.234-8.32l-.023-.211h8.062l.047.187c.398 1.735 1.711 2.742 4.148 2.742 2.204 0 3.539-.797 3.539-2.11v-.023c0-1.148-.82-1.78-3.093-2.25l-4.5-.89c-4.992-.961-7.594-3.563-7.594-7.453v-.024c0-5.086 4.359-8.25 11.344-8.25 7.383 0 11.297 3.774 11.367 8.344l.023.187h-7.593l-.024-.187c-.187-1.5-1.476-2.742-3.773-2.742-2.039 0-3.352.844-3.352 2.18v.023c0 1.101.774 1.758 3.188 2.25l4.5.89c5.414 1.079 7.757 3.188 7.757 7.008v.024c0 5.273-4.781 8.625-11.789 8.625"/></svg>
