<svg xmlns="http://www.w3.org/2000/svg" style="display:none">
  <symbol id="icon-home" viewBox="0 0 24 24" fill="none" stroke="currentColor" stroke-width="2" stroke-linecap="round" stroke-linejoin="round">
    <path d="m3 9 9-7 9 7v11a2 2 0 0 1-2 2H5a2 2 0 0 1-2-2z"/>
    <polyline points="9 22 9 12 15 12 15 22"/>
  </symbol>
  <symbol id="icon-calendar" viewBox="0 0 24 24" fill="none" stroke="currentColor" stroke-width="2" stroke-linecap="round" stroke-linejoin="round">
    <rect width="18" height="18" x="3" y="4" rx="2" ry="2"/>
    <line x1="16" x2="16" y1="2" y2="6"/>
    <line x1="8" x2="8" y1="2" y2="6"/>
    <line x1="3" x2="21" y1="10" y2="10"/>
  </symbol>
  <symbol id="icon-file-text" viewBox="0 0 24 24" fill="none" stroke="currentColor" stroke-width="2" stroke-linecap="round" stroke-linejoin="round">
    <path d="M14.5 2H6a2 2 0 0 0-2 2v16a2 2 0 0 0 2 2h12a2 2 0 0 0 2-2V7.5L14.5 2z"/>
    <polyline points="14 2 14 8 20 8"/>
    <line x1="16" x2="8" y1="13" y2="13"/>
    <line x1="16" x2="8" y1="17" y2="17"/>
    <line x1="10" x2="8" y1="9" y2="9"/>
  </symbol>
  <symbol id="icon-message-circle" viewBox="0 0 24 24" fill="none" stroke="currentColor" stroke-width="2" stroke-linecap="round" stroke-linejoin="round">
    <path d="M2.992 16.342a2 2 0 0 1 .094 1.167l-1.065 3.29a1 1 0 0 0 1.236 1.168l3.413-.998a2 2 0 0 1 1.099.092 10 10 0 1 0-4.777-4.719"/>
  </symbol>
  <symbol id="icon-user" viewBox="0 0 24 24" fill="none" stroke="currentColor" stroke-width="2" stroke-linecap="round" stroke-linejoin="round">
    <path d="M19 21v-2a4 4 0 0 0-4-4H9a4 4 0 0 0-4 4v2"/>
    <circle cx="12" cy="7" r="4"/>
  </symbol>
  <symbol id="icon-log-out" viewBox="0 0 24 24" fill="none" stroke="currentColor" stroke-width="2" stroke-linecap="round" stroke-linejoin="round">
    <path d="M9 21H5a2 2 0 0 1-2-2V5a2 2 0 0 1 2-2h4"/>
    <polyline points="16 17 21 12 16 7"/>
    <line x1="21" x2="9" y1="12" y2="12"/>
  </symbol>
  <symbol id="icon-menu" viewBox="0 0 24 24" fill="none" stroke="currentColor" stroke-width="2" stroke-linecap="round" stroke-linejoin="round">
    <line x1="4" x2="20" y1="12" y2="12"/>
    <line x1="4" x2="20" y1="6" y2="6"/>
    <line x1="4" x2="20" y1="18" y2="18"/>
  </symbol>
  <symbol id="icon-x" viewBox="0 0 24 24" fill="none" stroke="currentColor" stroke-width="2" stroke-linecap="round" stroke-linejoin="round">
    <path d="M18 6 6 18"/>
    <path d="m6 6 12 12"/>
  </symbol>
  <symbol id="icon-edit" viewBox="0 0 24 24" fill="none" stroke="currentColor" stroke-width="2" stroke-linecap="round" stroke-linejoin="round">
    <path d="M12 3H5a2 2 0 0 0-2 2v14a2 2 0 0 0 2 2h14a2 2 0 0 0 2-2v-7"/>
    <path d="M18.375 2.625a1 1 0 0 1 3 3l-9.013 9.014a2 2 0 0 1-.853.505l-2.873.84a.5.5 0 0 1-.62-.62l.84-2.873a2 2 0 0 1 .506-.852z"/>
  </symbol>
  <symbol id="icon-user-plus" viewBox="0 0 24 24" fill="none" stroke="currentColor" stroke-width="2" stroke-linecap="round" stroke-linejoin="round">
    <path d="M16 21v-2a4 4 0 0 0-4-4H6a4 4 0 0 0-4 4v2"/>
    <circle cx="9" cy="7" r="4"/>
    <line x1="19" x2="19" y1="8" y2="14"/>
    <line x1="22" x2="16" y1="11" y2="11"/>
  </symbol>
  <symbol id="icon-trash-2" viewBox="0 0 24 24" fill="none" stroke="currentColor" stroke-width="2" stroke-linecap="round" stroke-linejoin="round">
    <path d="M3 6h18"/>
    <path d="M19 6v14c0 1-1 2-2 2H7c-1 0-2-1-2-2V6"/>
    <path d="M8 6V4c0-1 1-2 2-2h4c1 0 2 1 2 2v2"/>
    <line x1="10" x2="10" y1="11" y2="17"/>
    <line x1="14" x2="14" y1="11" y2="17"/>
  </symbol>
  <symbol id="icon-credit-card" viewBox="0 0 24 24" fill="none" stroke="currentColor" stroke-width="2" stroke-linecap="round" stroke-linejoin="round">
    <rect width="20" height="14" x="2" y="5" rx="2"/>
    <line x1="2" x2="22" y1="10" y2="10"/>
  </symbol>
</svg>
